<svg width="13" height="12" viewBox="0 0 13 12" fill="none" xmlns="http://www.w3.org/2000/svg">
<path d="M12.0864 8.96995L10.1771 7.11654C9.79677 6.74889 9.16697 6.76006 8.77341 7.14219L7.81146 8.07563C7.75069 8.04313 7.68778 8.00917 7.62164 7.97314C7.01418 7.64645 6.18277 7.19869 5.30788 6.34891C4.4304 5.49734 3.96864 4.68914 3.63103 4.09917C3.5954 4.03667 3.56127 3.9764 3.52756 3.91917L4.17317 3.29349L4.49057 2.98504C4.88473 2.60236 4.8956 1.99126 4.51618 1.62254L2.60681 -0.23108C2.22739 -0.599274 1.5973 -0.588104 1.20314 -0.20543L0.665014 0.319867L0.67972 0.334037C0.499279 0.557504 0.348497 0.81524 0.23629 1.09318C0.132856 1.35774 0.068459 1.6102 0.0390131 1.86318C-0.213107 3.89184 0.742022 5.74587 3.33412 8.26177C6.91718 11.7392 9.80466 11.4765 9.92922 11.4637C10.2005 11.4322 10.4605 11.3693 10.7248 11.2697C11.0086 11.1621 11.274 11.0159 11.5041 10.8412L11.5159 10.8513L12.061 10.3332C12.4544 9.95057 12.4657 9.33925 12.0864 8.96995Z" fill="#DD0023"/>
</svg>
