<svg width="435" height="42" viewBox="0 0 435 42" fill="none" xmlns="http://www.w3.org/2000/svg">
<path d="M233.42 1.18311H231.929V40.7843H233.42V1.18311Z" fill="#FE334A"/>
<path d="M62.7409 1.24708C63.6962 1.0791 65.3236 1.0791 66.2789 1.24708L58.7933 14.696C57.838 14.8639 56.2107 14.8639 55.2553 14.696L57.9639 9.85604L53.166 1.24708C54.1214 1.0791 55.7487 1.0791 56.7041 1.24708L59.7277 6.95839L62.7409 1.24708Z" fill="#0C143B"/>
<path d="M79.3285 1.2461C80.2838 1.07812 81.6907 1.07812 82.6356 1.2461V14.6845C81.6802 14.8525 80.2733 14.8525 79.3285 14.6845V9.27764H73.7641V14.695C72.8088 14.863 71.4019 14.863 70.457 14.695V1.2461C71.4124 1.07812 72.8192 1.07812 73.7641 1.2461V6.51647H79.3285V1.2461Z" fill="#0C143B"/>
<path d="M99.6966 14.695C98.7412 14.863 97.3344 14.863 96.3895 14.695V6.81043L90.1218 14.695C89.1664 14.863 88.4839 14.863 87.5391 14.695V1.2461C88.4944 1.07812 89.9013 1.07812 90.8462 1.2461V9.13065L97.1139 1.2461C98.0693 1.07812 98.7517 1.07812 99.6966 1.2461V14.695Z" fill="#0C143B"/>
<path d="M110.384 1.24609C112.988 1.24609 114.773 2.71592 114.773 4.76317C114.773 6.191 113.985 7.19888 112.936 7.74481C114.195 8.30125 115.046 9.40361 115.046 10.8839C115.046 13.2881 113.209 14.695 110.437 14.695H104.6V1.24609H110.384ZM107.907 6.76843H110.017C110.867 6.76843 111.466 6.29599 111.466 5.3826C111.466 4.46921 110.93 3.99676 110.017 3.99676H107.907V6.76843ZM107.907 11.9443H110.227C111.14 11.9443 111.676 11.4719 111.676 10.4955C111.676 9.56109 111.098 9.08865 110.101 9.08865H107.907V11.9443Z" fill="#0C143B"/>
<path d="M128.652 11.9443C128.82 12.8997 128.82 13.7396 128.652 14.695H119.287V1.24609H128.652C128.82 2.20148 128.82 3.04138 128.652 3.99676H122.594V6.51646H127.949C128.117 7.47184 128.117 8.31174 127.949 9.26713H122.594V11.9338H128.652V11.9443Z" fill="#0C143B"/>
<path d="M138.289 1.24609C141.292 1.24609 143.36 3.04138 143.36 5.75005C143.36 8.45873 141.292 10.254 138.289 10.254H136.326V14.6845C135.37 14.8525 133.963 14.8525 133.019 14.6845V1.24609H138.289ZM138.289 7.51384C139.202 7.51384 139.99 6.9784 139.99 5.76055C139.99 4.5427 139.202 4.00726 138.289 4.00726H136.326V7.52434H138.289V7.51384Z" fill="#0C143B"/>
<path d="M158.961 10.9679C159.192 11.2829 159.129 13.5296 158.961 13.9706C158.153 14.464 156.788 14.9995 154.867 14.9995C150.174 14.9995 147.276 11.8393 147.276 7.96531C147.276 4.09127 150.174 0.931152 154.867 0.931152C156.788 0.931152 158.153 1.46659 158.961 1.96003C159.129 2.39048 159.192 4.64771 158.961 4.96267C157.513 4.07028 156.253 3.68182 155.056 3.68182C152.641 3.68182 150.646 5.29863 150.646 7.96531C150.646 10.632 152.631 12.2488 155.056 12.2488C156.253 12.2488 157.513 11.8603 158.961 10.9679Z" fill="#0C143B"/>
<path d="M176.106 14.695C175.15 14.863 173.744 14.863 172.799 14.695V6.81043L166.531 14.695C165.576 14.863 164.893 14.863 163.948 14.695V1.2461C164.904 1.07812 166.31 1.07812 167.255 1.2461V9.13065L173.523 1.2461C174.478 1.07812 175.161 1.07812 176.106 1.2461V14.695Z" fill="#0C143B"/>
<path d="M190.93 1.24609C191.098 2.20148 191.098 3.04138 190.93 3.99676H187.287V14.6845C186.332 14.8525 184.925 14.8525 183.98 14.6845V3.99676H180.337C180.169 3.04138 180.169 2.20148 180.337 1.24609H190.93Z" fill="#0C143B"/>
<path d="M204.599 11.9443C204.767 12.8997 204.767 13.7396 204.599 14.695H195.234V1.24609H204.599C204.767 2.20148 204.767 3.04138 204.599 3.99676H198.541V6.51646H203.896C204.064 7.47184 204.064 8.31174 203.896 9.26713H198.541V11.9338H204.599V11.9443Z" fill="#0C143B"/>
<path d="M218.888 1.24609C219.056 2.20148 219.056 3.04138 218.888 3.99676H215.245V14.6845C214.29 14.8525 212.883 14.8525 211.938 14.6845V3.99676H208.295C208.127 3.04138 208.127 2.20148 208.295 1.24609H218.888Z" fill="#0C143B"/>
<path d="M70.8039 34.8421C71.1609 35.325 71.0664 38.8631 70.8039 39.5455C69.5441 40.3224 67.4024 41.1623 64.3892 41.1623C57.0296 41.1623 52.4941 36.2069 52.4941 30.1387C52.4941 24.0809 57.0296 19.1255 64.3892 19.1255C67.4024 19.1255 69.5441 19.9654 70.8039 20.7423C71.0664 21.4247 71.1609 24.9523 70.8039 25.4457C68.5362 24.0494 66.5625 23.4405 64.6832 23.4405C60.8931 23.4405 57.775 25.9707 57.775 30.1492C57.775 34.3277 60.8826 36.8579 64.6832 36.8579C66.552 36.8474 68.5362 36.2384 70.8039 34.8421Z" fill="#0C143B"/>
<path d="M94.4263 40.6799C92.9355 40.9424 90.7307 40.9424 89.2399 40.6799V28.3334L79.4236 40.6799C77.9328 40.9424 76.8619 40.9424 75.3711 40.6799V19.609C76.8619 19.3465 79.0667 19.3465 80.5575 19.609V31.9555L90.3738 19.609C91.8646 19.3465 92.9355 19.3465 94.4263 19.609V40.6799Z" fill="#0C143B"/>
<path d="M112.768 19.609C114.258 19.3465 116.463 19.3465 117.954 19.609V40.6799C116.463 40.9424 114.258 40.9424 112.768 40.6799V32.1864H104.054V40.6799C102.563 40.9424 100.358 40.9424 98.8672 40.6799V19.609C100.358 19.3465 102.563 19.3465 104.054 19.609V27.8715H112.768V19.609Z" fill="#0C143B"/>
<path d="M137.166 36.3649C137.429 37.8557 137.429 39.189 137.166 40.6799H122.489V19.6089H137.166C137.429 21.0997 137.429 22.433 137.166 23.9239H127.676V27.8819H136.075C136.337 29.3727 136.337 30.7061 136.075 32.1969H127.676V36.3754H137.166V36.3649Z" fill="#0C143B"/>
<path d="M149.03 19.6089C153.734 19.6089 156.967 22.433 156.967 26.6745C156.967 30.916 153.723 33.7402 149.03 33.7402H145.954V40.6799C144.463 40.9423 142.258 40.9423 140.768 40.6799V19.6089H149.03ZM149.03 29.4357C150.458 29.4357 151.686 28.5958 151.686 26.685C151.686 24.7743 150.458 23.9344 149.03 23.9344H145.954V29.4462H149.03V29.4357Z" fill="#0C143B"/>
<path d="M174.563 19.6089C174.826 21.0997 174.826 22.433 174.563 23.9239H165.881V40.6799C164.39 40.9423 162.185 40.9423 160.694 40.6799V19.6089H174.563Z" fill="#0C143B"/>
<path d="M197.019 40.6799C195.528 40.9424 193.324 40.9424 191.833 40.6799V28.3334L182.016 40.6799C180.526 40.9424 179.455 40.9424 177.964 40.6799V19.609C179.455 19.3465 181.659 19.3465 183.15 19.609V31.9555L192.967 19.609C194.457 19.3465 195.528 19.3465 197.019 19.609V40.6799Z" fill="#0C143B"/>
<path d="M217.702 40.6799C216.212 40.9423 214.007 40.9423 212.516 40.6799V33.5512H210.511L205.87 40.6799C204.379 40.9423 201.723 40.9423 200.232 40.6799L205.356 32.7743C202.857 31.6719 201.335 29.4357 201.335 26.58C201.335 22.433 204.474 19.6089 209.177 19.6089H217.702V40.6799ZM209.272 23.9239C207.844 23.9239 206.616 24.7638 206.616 26.58C206.616 28.3963 207.844 29.2362 209.272 29.2362H212.516V23.9239H209.272Z" fill="#0C143B"/>
<path d="M253.776 7.46257C257.744 7.46257 259.939 9.83529 259.939 12.7014C259.939 15.5361 257.744 17.9403 253.776 17.9403H247.561V1.17383H258.343C258.5 1.91924 258.5 2.64365 258.343 3.38906H250.196V7.46257H253.776ZM253.807 15.7146C256.107 15.7146 257.293 14.3497 257.293 12.7014C257.293 11.0216 256.107 9.65681 253.807 9.65681H250.217V15.7146H253.807Z" fill="#0C143B"/>
<path d="M280.411 9.55112C280.411 14.37 276.821 18.3176 271.592 18.3176C266.354 18.3176 262.773 14.37 262.773 9.55112C262.773 4.73219 266.364 0.784668 271.592 0.784668C276.831 0.784668 280.411 4.73219 280.411 9.55112ZM265.451 9.55112C265.451 13.4251 268.107 16.1023 271.592 16.1023C275.078 16.1023 277.734 13.4251 277.734 9.55112C277.734 5.68758 275.078 2.9999 271.592 2.9999C268.107 2.9999 265.451 5.68758 265.451 9.55112Z" fill="#0C143B"/>
<path d="M297.765 17.9398C297.02 18.0973 295.855 18.0973 295.13 17.9398V3.38858H288.936L287.928 13.2364C287.592 16.5855 286.227 18.3178 283.519 18.3178C283.025 18.3178 282.595 18.2653 282.175 18.1393C282.017 17.3939 282.017 16.638 282.175 15.8926C282.406 15.9451 282.616 15.9661 282.815 15.9661C284.18 15.9661 285.062 15.2207 285.293 12.9949L286.532 1.15234H297.755V17.9398H297.765Z" fill="#0C143B"/>
<path d="M308.107 7.03158C312.076 7.03158 314.322 9.42529 314.322 12.5014C314.322 15.5461 312.076 17.9398 308.107 17.9398H301.944V1.17329C302.69 1.01581 303.855 1.01581 304.579 1.17329V7.03158H308.107ZM308.128 15.714C310.427 15.714 311.666 14.3492 311.666 12.4909C311.666 10.6117 310.427 9.23632 308.128 9.23632H304.59V15.714H308.128Z" fill="#0C143B"/>
<path d="M336.422 1.17329C337.167 1.01581 338.333 1.01581 339.078 1.17329V17.9398H317.934V1.17329C318.679 1.01581 319.844 1.01581 320.569 1.17329V15.7245H327.193V1.17329C327.918 1.01581 329.073 1.01581 329.829 1.17329V15.7245H336.432V1.17329H336.422Z" fill="#0C143B"/>
<path d="M354.699 15.7141C354.878 16.4595 354.878 17.1839 354.699 17.9293H343.298V1.17334H354.699C354.878 1.91875 354.878 2.64316 354.699 3.38857H345.933V8.29148H353.902C354.059 9.03689 354.059 9.76131 353.902 10.5067H345.933V15.7141H354.699Z" fill="#0C143B"/>
<path d="M373.735 1.17329C374.48 1.01581 375.645 1.01581 376.391 1.17329V17.9398C375.645 18.0973 374.48 18.0973 373.735 17.9398V10.3492C372.937 11.1786 371.026 12.26 368.758 12.26C365.273 12.26 363.425 9.96073 363.425 6.76911V1.17329C364.17 1.01581 365.336 1.01581 366.06 1.17329V6.41216C366.06 8.50141 367.015 10.0447 369.619 10.0447C371.635 10.0447 373.178 8.91086 373.745 8.25993V1.17329H373.735Z" fill="#0C143B"/>
<path d="M392.012 15.7141C392.19 16.4595 392.19 17.1839 392.012 17.9293H380.61V1.17334H392.012C392.19 1.91875 392.19 2.64316 392.012 3.38857H383.246V8.29148H391.214C391.372 9.03689 391.372 9.76131 391.214 10.5067H383.246V15.7141H392.012Z" fill="#0C143B"/>
<path d="M415.53 17.9398C414.784 18.0973 413.703 18.0973 412.947 17.9398L410.238 5.84522L405.902 17.9398C405.157 18.0973 404.485 18.0973 403.74 17.9398L399.404 5.84522L396.695 17.9398C395.95 18.0973 394.868 18.0973 394.112 17.9398L398.028 1.17329C398.774 1.01581 399.519 1.01581 400.275 1.17329L404.81 13.8138L409.346 1.17329C410.091 1.01581 410.868 1.01581 411.593 1.17329L415.53 17.9398Z" fill="#0C143B"/>
<path d="M264.558 32.4281C264.558 37.247 260.967 41.1945 255.739 41.1945C250.5 41.1945 246.92 37.247 246.92 32.4281C246.92 27.6091 250.51 23.6616 255.739 23.6616C260.967 23.6616 264.558 27.6091 264.558 32.4281ZM249.597 32.4281C249.597 36.3021 252.253 38.9793 255.739 38.9793C259.224 38.9793 261.881 36.3021 261.881 32.4281C261.881 28.5645 259.224 25.8769 255.739 25.8769C252.253 25.8769 249.597 28.5645 249.597 32.4281Z" fill="#0C143B"/>
<path d="M274.373 30.3381C278.342 30.3381 280.536 32.7108 280.536 35.5769C280.536 38.4116 278.342 40.8158 274.373 40.8158H268.158V24.0493H278.94C279.098 24.7947 279.098 25.5191 278.94 26.2646H270.793V30.3381H274.373ZM274.405 38.5901C276.704 38.5901 277.891 37.2252 277.891 35.5769C277.891 33.8971 276.704 32.5323 274.405 32.5323H270.814V38.5901H274.405Z" fill="#0C143B"/>
<path d="M290.186 24.0493C294.154 24.0493 296.401 26.4535 296.401 29.5402C296.401 32.6058 294.154 35.01 290.186 35.01H286.648V40.8158C285.923 40.9733 284.769 40.9733 284.013 40.8158V24.0493H290.186ZM290.207 32.8158C292.506 32.8158 293.745 31.4194 293.745 29.5402C293.745 27.6294 292.506 26.2646 290.207 26.2646H286.669V32.8158H290.207Z" fill="#0C143B"/>
<path d="M313.346 40.8055C312.6 40.963 311.361 40.963 310.616 40.8055L308.915 36.606H301.618L299.939 40.8055C299.193 40.963 297.954 40.963 297.209 40.8055L304.17 24.039C304.894 23.8815 305.639 23.8815 306.385 24.039L313.346 40.8055ZM308.075 34.3908L305.262 27.4301L302.448 34.3908H308.075Z" fill="#0C143B"/>
<path d="M327.834 36.3439C327.834 39.3675 325.282 41.2153 321.639 41.2153C319.34 41.2153 317.408 40.5433 316.201 39.7454C316.044 39.3885 315.991 37.5512 316.201 37.2677C317.849 38.4331 319.655 39 321.513 39C323.477 39 325.146 37.9712 325.146 36.0289C325.146 34.5381 324.191 33.3202 322.028 33.3202H319.246C319.067 32.5958 319.067 31.9554 319.246 31.231H321.975C323.624 31.231 324.705 30.1181 324.705 28.5748C324.705 27.0315 323.571 25.8661 321.555 25.8661C319.907 25.8661 318.101 26.433 316.453 27.5669C316.243 27.3044 316.296 25.4777 316.453 25.1207C317.66 24.2913 319.55 23.6509 321.692 23.6509C325.282 23.6509 327.34 25.6351 327.34 28.1653C327.34 29.9711 326.364 31.4619 324.81 32.1339C326.805 32.8163 327.834 34.4436 327.834 36.3439Z" fill="#0C143B"/>
<path d="M348.001 32.4281C348.001 37.247 344.411 41.1945 339.182 41.1945C333.943 41.1945 330.363 37.247 330.363 32.4281C330.363 27.6091 333.954 23.6616 339.182 23.6616C344.411 23.6616 348.001 27.6091 348.001 32.4281ZM333.04 32.4281C333.04 36.3021 335.697 38.9793 339.182 38.9793C342.668 38.9793 345.324 36.3021 345.324 32.4281C345.324 28.5645 342.668 25.8769 339.182 25.8769C335.697 25.8769 333.04 28.5645 333.04 32.4281Z" fill="#0C143B"/>
<path d="M358.385 24.0493C361.482 24.0493 363.676 25.8026 363.676 28.3538C363.676 30.1596 362.7 31.4719 361.199 32.1228C363.109 32.7738 364.17 34.2331 364.17 36.1439C364.17 38.9575 362.007 40.8158 358.448 40.8158H351.613V24.0493H358.385ZM354.259 31.3144H358.311C359.991 31.3144 361.073 30.3591 361.073 28.7842C361.073 27.1884 359.865 26.2541 358.154 26.2541H354.259V31.3144ZM354.259 38.5901H358.311C360.38 38.5901 361.514 37.5297 361.514 35.8604C361.514 34.2856 360.506 33.2042 358.364 33.2042H354.259V38.5901Z" fill="#0C143B"/>
<path d="M382.269 40.8055C381.524 40.963 380.285 40.963 379.54 40.8055L377.839 36.606H370.542L368.862 40.8055C368.117 40.963 366.878 40.963 366.133 40.8055L373.093 24.039C373.818 23.8815 374.563 23.8815 375.309 24.039L382.269 40.8055ZM376.999 34.3908L374.185 27.4301L371.372 34.3908H376.999Z" fill="#0C143B"/>
<path d="M397.114 24.0498C397.838 23.8923 398.993 23.8923 399.739 24.0498V40.8162C398.993 40.9737 397.828 40.9737 397.114 40.8162V33.3831H387.907V40.8162C387.182 40.9737 386.027 40.9737 385.271 40.8162V24.0498C386.017 23.8923 387.182 23.8923 387.907 24.0498V31.1679H397.114V24.0498Z" fill="#0C143B"/>
<path d="M418.364 40.8057C417.64 40.9632 416.485 40.9632 415.729 40.8057V28.4592L406.028 40.8162C405.283 40.9737 404.663 40.9737 403.918 40.8162V24.0498C404.663 23.8923 405.829 23.8923 406.553 24.0498V36.4068L416.275 24.0498C416.999 23.8923 417.64 23.8923 418.364 24.0498V40.8057Z" fill="#0C143B"/>
<path d="M433.892 38.5901C434.07 39.3355 434.07 40.0599 433.892 40.8053H422.49V24.0493H433.892C434.07 24.7947 434.07 25.5191 433.892 26.2646H425.125V31.1675H433.094C433.251 31.9129 433.251 32.6373 433.094 33.3827H425.125V38.5901H433.892Z" fill="#0C143B"/>
<path d="M0 1.1626V40.8163H39.6537V1.1626H0ZM34.6983 35.8609H4.9554V6.118H34.6983V35.8609ZM24.63 34.1601L11.4646 20.9842L24.63 7.8188V14.832L18.4673 20.9947L24.63 27.1575V34.1601Z" fill="#FE334A"/>
</svg>
